ply
format ascii 1.0
comment VCGLIB generated
comment TextureFile Bullet_U.bmp
element vertex 91
property float x
property float y
property float z
property float nx
property float ny
property float nz
property float texture_u
property float texture_v
element face 76
property list uchar int vertex_indices
end_header
1 2.726929e-16 4.453413 0 0 1 0.6461366 0.2206768
0.5 -0.8660254 4.453413 0 0 1 0.5852582 0.1152325
-0.5 -0.8660254 4.453413 0 0 1 0.4635016 0.1152325
-1 1.502282e-16 4.453413 0 0 1 0.4026233 0.2206768
-0.5 0.8660254 4.453413 0 0 1 0.4635016 0.3261212
0.5 0.8660254 4.453413 0 0 1 0.5852582 0.3261212
1 1.136202e-16 1.855558 0 0 -1 0.6779114 0.249196
0.5 -0.8660254 1.855558 0.5 -0.8660254 0 0.6599817 0.5648261
-0.5 -0.8660254 1.855558 0 -1 0 0.4975583 0.5648261
-1 -8.844501e-18 1.855558 -1 2.190784e-08 4.134941e-18 0.6599817 0.5648261
-0.5 0.8660254 1.855558 0 0 -1 0.6779114 0.5305216
0.5 0.8660254 1.855558 0 0 -1 0.5966997 0.3898588
0.407 -0.7049447 4.453413 -0.5000001 0.8660254 -1.401445e-17 0.2574305 0.3236786
0.814 2.38276e-16 4.453413 -1 1.095392e-08 -1.767626e-17 0.1583206 0.3236786
0.407 0.7049447 4.453413 -0.8660254 -0.5000001 0 0.05921068 0.3236786
-0.407 0.7049447 4.453413 0.5000001 -0.8660254 1.401445e-17 0.1583206 0.02993247
-0.814 1.846451e-16 4.453413 1 -1.095392e-08 1.767626e-17 0.2574305 0.02993247
-0.407 -0.7049447 4.453413 0.8660254 0.5000001 0 0.3565404 0.02993247
0.407 -0.7049447 2.040846 -0.5 0.8660254 0 0.2574305 0.02993247
0.814 9.054883e-17 2.040846 -1 -2.190784e-08 -3.661813e-18 0.1583206 0.02993247
0.407 0.7049447 2.040846 -0.8660254 -0.5 0 0.05921068 0.02993247
-0.407 0.7049447 2.040846 0.5 -0.8660254 0 0.1583206 0.3236786
-0.814 3.691798e-17 2.040846 1 2.190784e-08 3.661813e-18 0.2574305 0.3236786
-0.407 -0.7049447 2.040846 0.8660254 0.5 0 0.3565404 0.3236786
0.4479442 -0.7758621 4.088447 0 0 -1 0.104237 0.3558826
0.8958884 2.106044e-16 4.088447 0 0 -1 0.02153226 0.4991314
0.4479442 0.7758621 4.088447 0.8660254 0.5000001 0 0.01470433 0.7329711
-0.4479442 0.7758621 4.088447 0 0 -1 0.2696465 0.6423802
-0.8958884 1.515783e-16 4.088447 -1 1.095392e-08 0 0.1654045 0.7062148
-0.4479442 -0.7758621 4.088447 -0.8660254 -0.5000001 0 0.01470433 0.7329711
0.4479442 -0.7758621 4.830057 0.4882787 -0.8457235 0.2152572 0.3094665 0.8261546
0.8958884 2.560149e-16 4.830057 0.9765574 2.995686e-08 0.2152573 0.1761645 0.8253421
0.4479442 0.7758621 4.830057 0.8506649 0.4911316 0.1875074 0.03685302 0.8577197
-0.4479442 0.7758621 4.830057 -0.4882787 0.8457235 0.2152572 0.3094665 0.8261546
-0.8958884 1.969888e-16 4.830057 -0.9765574 -2.995686e-08 0.2152573 0.1761645 0.8253421
-0.4479442 -0.7758621 4.830057 -0.8506649 -0.4911316 0.1875074 0.03685302 0.8577197
0.2877594 -0.4984138 5.469429 0.4470223 -0.7742653 0.447978 0.2943906 0.940742
0.5755187 5.599753e-16 5.469429 0.8940446 0 0.447978 0.1925125 0.9393982
0.2877594 0.4984138 5.469429 0.794451 0.4586765 0.3980747 0.09643871 0.9665199
-0.2877594 0.4984138 5.469429 -0.4470223 0.7742653 0.447978 0.2943906 0.940742
-0.5755187 5.220569e-16 5.469429 -0.8940446 0 0.447978 0.1925125 0.9393982
-0.2877594 -0.4984138 5.469429 -0.794451 -0.4586765 0.3980747 0.09643871 0.9665199
1 2.726929e-16 4.453413 1 1.643088e-08 -1.767626e-17 0.822405 0.9867784
0.5 -0.8660254 4.453413 0.5 -0.8660254 0 0.6599817 0.9867784
-0.5 -0.8660254 4.453413 -0.5 -0.8660254 1.354132e-17 0.4975583 0.9867784
-1 1.502282e-16 4.453413 -1 -2.190784e-08 1.767626e-17 0.6599817 0.9867784
-0.5 0.8660254 4.453413 -0.5 0.8660254 0 0.822405 0.9867784
0.5 0.8660254 4.453413 0 1 0 0.9848284 0.9867784
0.5 0.8660254 4.453413 0.8660254 0.5 -2.345425e-17 0.9848284 0.9867784
1 1.136202e-16 1.855558 1 -2.190784e-08 -4.134941e-18 0.822405 0.5648261
0.5 -0.8660254 1.855558 0 0 -1 0.8403348 0.249196
-0.5 -0.8660254 1.855558 -0.8660254 -0.5 0 0.4975583 0.5648261
-0.5 -0.8660254 1.855558 0 0 -1 0.9215465 0.3898588
-1 -8.844501e-18 1.855558 0 0 -1 0.8403348 0.5305216
-0.5 0.8660254 1.855558 -0.5 0.8660254 0 0.822405 0.5648261
0.5 0.8660254 1.855558 0.8660254 0.5 0 0.9848284 0.5648261
0.5 0.8660254 1.855558 0 1 0 0.9848284 0.5648261
0.407 -0.7049447 4.453413 0 0 1 0.5739349 0.1348451
0.814 2.38276e-16 4.453413 0 0 1 0.6234899 0.2206768
0.407 0.7049447 4.453413 0 -1 0 0.05921068 0.02993247
0.407 0.7049447 4.453413 0 0 1 0.5739349 0.3065085
-0.407 0.7049447 4.453413 0 0 1 0.474825 0.3065085
-0.814 1.846451e-16 4.453413 0 0 1 0.42527 0.2206768
-0.407 -0.7049447 4.453413 0 1 0 0.3565404 0.3236786
-0.407 -0.7049447 4.453413 0 0 1 0.474825 0.1348451
0.407 -0.7049447 2.040846 0 0 1 0.6904188 0.01100353
0.814 9.054883e-17 2.040846 0 0 1 0.8201338 0.01100353
0.407 0.7049447 2.040846 0 -1 0 0.05921068 0.3236786
0.407 0.7049447 2.040846 0 0 1 0.8849913 0.1233401
-0.407 0.7049447 2.040846 0 0 1 0.8201338 0.2356766
-0.814 3.691798e-17 2.040846 0 0 1 0.6904188 0.2356766
-0.407 -0.7049447 2.040846 0 1 0 0.3565404 0.02993247
-0.407 -0.7049447 2.040846 0 0 1 0.6255612 0.1233401
0.4479442 -0.7758621 4.088447 0.5000001 -0.8660254 0 0.3192638 0.7082686
0.8958884 2.106044e-16 4.088447 1 -1.095392e-08 0 0.1654045 0.7062148
0.4479442 0.7758621 4.088447 0 0 -1 0.104237 0.6423802
0.4479442 0.7758621 4.088447 0 1 0 0.4691449 0.7331789
-0.4479442 0.7758621 4.088447 -0.5000001 0.8660254 0 0.3192638 0.7082686
-0.8958884 1.515783e-16 4.088447 0 0 -1 0.3523512 0.4991314
-0.4479442 -0.7758621 4.088447 0 0 -1 0.2696465 0.3558826
-0.4479442 -0.7758621 4.088447 0 -1 0 0.4691449 0.7331789
0.4479442 0.7758621 4.830057 0 0.9822632 0.1875074 0.4485244 0.8572493
-0.4479442 -0.7758621 4.830057 0 -0.9822632 0.1875074 0.4485244 0.8572493
0.2877594 -0.4984138 5.469429 0 0 1 0.4345442 0.360655
0.5755187 5.599753e-16 5.469429 0 0 1 0.5312172 0.360655
0.2877594 0.4984138 5.469429 0 0.917353 0.3980747 0.3905439 0.9665199
0.2877594 0.4984138 5.469429 0 0 1 0.5795538 0.4443763
-0.2877594 0.4984138 5.469429 0 0 1 0.5312172 0.5280976
-0.5755187 5.220569e-16 5.469429 0 0 1 0.4345442 0.5280976
-0.2877594 -0.4984138 5.469429 0 0 1 0.3862077 0.4443763
-0.2877594 -0.4984138 5.469429 0 -0.917353 0.3980747 0.3905439 0.9665199
3 66 68 69 
3 70 72 65 
3 65 66 69 
3 65 69 70 
3 50 52 53 
3 53 10 6 
3 53 6 50 
3 10 11 6 
3 42 49 48 
3 49 55 48 
3 47 56 46 
3 56 54 46 
3 46 54 45 
3 54 9 45 
3 45 9 44 
3 9 51 44 
3 44 8 43 
3 8 7 43 
3 43 7 42 
3 7 49 42 
3 0 58 1 
3 58 57 1 
3 60 58 0 
3 0 5 60 
3 4 61 60 
3 60 5 4 
3 62 61 4 
3 4 3 62 
3 2 64 62 
3 62 3 2 
3 1 57 64 
3 1 64 2 
3 13 19 12 
3 19 18 12 
3 14 20 13 
3 20 19 13 
3 15 21 59 
3 21 67 59 
3 16 22 15 
3 22 21 15 
3 17 23 16 
3 23 22 16 
3 12 18 63 
3 18 71 63 
3 84 86 87 
3 88 89 83 
3 83 84 87 
3 83 87 88 
3 24 79 78 
3 78 27 25 
3 78 25 24 
3 27 75 25 
3 31 30 73 
3 73 74 31 
3 32 31 74 
3 74 26 32 
3 33 81 76 
3 76 77 33 
3 34 33 77 
3 77 28 34 
3 35 34 28 
3 28 29 35 
3 30 82 80 
3 80 73 30 
3 37 36 30 
3 30 31 37 
3 38 37 31 
3 31 32 38 
3 39 85 81 
3 81 33 39 
3 40 39 33 
3 33 34 40 
3 41 40 34 
3 34 35 41 
3 30 36 90 
3 90 82 30 
